<svg width="10" height="12" viewBox="0 0 10 12" fill="none" xmlns="http://www.w3.org/2000/svg">
<path d="M7 5.49054H3V4.49054H7V5.49054ZM1.4685 8.53004C0.768271 7.8314 0.290992 6.94077 0.097051 5.97082C-0.0968902 5.00087 0.00122136 3.99518 0.378973 3.081C0.756725 2.16682 1.39714 1.38523 2.2192 0.835103C3.04126 0.284976 4.00802 -0.00896081 4.99717 -0.00952068C5.98632 -0.0100806 6.95341 0.282762 7.77609 0.831957C8.59877 1.38115 9.24008 2.16202 9.61886 3.07577C9.99765 3.98952 10.0969 4.9951 9.90406 5.96527C9.71121 6.93544 9.23494 7.82661 8.5355 8.52604L5 11.984L1.4685 8.53004ZM1 4.99054C0.99856 5.51605 1.10136 6.03662 1.30244 6.52213C1.50353 7.00764 1.79892 7.44845 2.1715 7.81904L5 10.585L7.8325 7.81504C8.29679 7.34941 8.63913 6.7765 8.82922 6.14702C9.01931 5.51754 9.05128 4.85091 8.9223 4.20613C8.79333 3.56135 8.50739 2.95831 8.08979 2.45038C7.67219 1.94246 7.13582 1.54531 6.52814 1.2941C5.92046 1.0429 5.26023 0.94537 4.60588 1.01016C3.95152 1.07495 3.32323 1.30006 2.77662 1.66555C2.23 2.03105 1.78192 2.52567 1.47204 3.10563C1.16216 3.68558 1.00003 4.33299 1 4.99054Z" fill="#B00205"/>
</svg>
