<svg width="10" height="12" viewBox="0 0 10 12" fill="none" xmlns="http://www.w3.org/2000/svg">
<path d="M4.99221 11.9905L8.52225 8.53782C10.4804 6.59679 10.4943 3.43587 8.55325 1.47774C6.61222 -0.480401 3.45131 -0.494295 1.49317 1.44674C1.48279 1.45703 1.47246 1.46736 1.46217 1.47774C-0.487414 3.42737 -0.487391 6.5883 1.46224 8.53789C1.46355 8.5392 1.46487 8.54051 1.46618 8.54183L4.99221 11.9905ZM2.16808 2.18364C3.7267 0.62282 6.25553 0.621016 7.81635 2.17966C9.37717 3.7383 9.37898 6.26711 7.82033 7.82793L4.99221 10.5936L2.16808 7.83192C0.608357 6.27226 0.608286 3.74353 2.16794 2.18378C2.16798 2.18374 2.16803 2.18369 2.16808 2.18364ZM4.49298 5.50701H2.9953V4.50854H4.49298V3.01086H5.49142V4.50854H6.9891V5.50701H5.49142V7.00469H4.49298V5.50701Z" fill="#B00205"/>
</svg>
